# xmcd CD database file
#
# Track frame offsets:
#	151
#	13626
#	26929
#	39939
#	53929
#	72430
#	86480
#	97508
#	115350
#	132298
#	144978
#	160714
#	173279
#	186763
#	196505
#	207042
#	218267
#	232395
#	248135
#	260018
#	273954
#
# Disc length: 3836 seconds
#
# Revision: 0
# Processed by: cddbd v1.5.2PL0 Copyright (c) Steve Scherf et al.
# Submitted via: CDex 1.70beta2
#
DISCID=150efa15
DTITLE=Sidney Bechet - Dear Old Southland: 1923-1949
DYEAR=2005
DGENRE=Jazz
TTITLE0=Wild Cat Blues
TTITLE1=Kansas City Man Blues
TTITLE2=Maple Leaf Rag
TTITLE3=Shag
TTITLE4=Summertime
TTITLE5=Indian Summer
TTITLE6=One O'Clock Jump
TTITLE7=Dear Old Southland
TTITLE8=China Boy
TTITLE9=Old Man Blues
TTITLE10=Nobody Knows The Way I Feel 'Dis Mornin'
TTITLE11=Stompy Jones
TTITLE12=Egyptian Fantasy
TTITLE13=The Sheik Of Araby
TTITLE14=Swing Parade
TTITLE15=I Know That You Know
TTITLE16=The Mooche
TTITLE17=What Is This Thing Called Love
TTITLE18=Polka Dot Stomp - Parts 1 and 2
TTITLE19=Just One Of Those Things
TTITLE20=Tiger Rag
EXTD=YEAR: 2005
EXTT0=
EXTT1=
EXTT2=
EXTT3=
EXTT4=
EXTT5=
EXTT6=
EXTT7=
EXTT8=
EXTT9=
EXTT10=
EXTT11=
EXTT12=
EXTT13=
EXTT14=
EXTT15=
EXTT16=
EXTT17=
EXTT18=
EXTT19=
EXTT20=
PLAYORDER=
